<svg width="128" height="128" viewBox="0 0 128 128" fill="none" xmlns="http://www.w3.org/2000/svg">
  <rect width="128" height="128" fill="#202023"/>
  <path d="M37.0195 47.3219H62.9045V81.1645C59.4898 82.3231 55.9226 83.2378 52.2029 83.9085C48.5443 84.5793 44.3673 84.9147 39.672 84.9147C33.2084 84.9147 27.6899 83.6341 23.1165 81.0731C18.6042 78.512 15.1589 74.7314 12.7808 69.7312C10.4636 64.731 9.30507 58.5723 9.30507 51.2549C9.30507 44.4254 10.6161 38.5106 13.2381 33.5104C15.9212 28.5102 19.7932 24.6381 24.8544 21.8941C29.9156 19.1501 36.1048 17.7781 43.4221 17.7781C46.8979 17.7781 50.3126 18.144 53.6664 18.8757C57.0202 19.6075 60.0691 20.5831 62.8131 21.8027L58.2397 32.8701C56.2275 31.8335 53.9408 30.9798 51.3797 30.3091C48.8187 29.6383 46.1356 29.3029 43.3307 29.3029C39.3061 29.3029 35.7999 30.2176 32.812 32.0469C29.8851 33.8763 27.5984 36.4678 25.952 39.8216C24.3666 43.1144 23.5739 47.017 23.5739 51.5293C23.5739 55.7978 24.1532 59.5784 25.3117 62.8712C26.4703 66.164 28.2996 68.7556 30.7997 70.6459C33.2998 72.4752 36.5621 73.3899 40.5867 73.3899C41.9282 73.3899 43.0868 73.3594 44.0624 73.2984C45.099 73.1764 46.0442 73.0545 46.8979 72.9325C47.7516 72.7496 48.5748 72.5972 49.3675 72.4752V58.8467H37.0195V47.3219ZM103.574 84H89.7621V30.2176H72.0176V18.6928H121.318V30.2176H103.574V84Z" fill="#F5F5F5"/>
  <line x1="4" y1="110.787" x2="121.6" y2="110.787" stroke="#F5F5F5" stroke-width="3.92"/>
</svg>
