<svg viewBox="0 0 128 128" fill="none" xmlns="http://www.w3.org/2000/svg">
  <rect width="128" height="128" fill="white"/>
  <path d="M47.49 52.61H64.78V77.11C62.0733 77.9967 59.3433 78.65 56.59 79.07C53.8367 79.49 50.71 79.7 47.21 79.7C42.03 79.7 37.6667 78.6733 34.12 76.62C30.5733 74.52 27.8667 71.5567 26 67.73C24.18 63.8567 23.27 59.2833 23.27 54.01C23.27 48.7833 24.2967 44.2567 26.35 40.43C28.4033 36.6033 31.3433 33.64 35.17 31.54C39.0433 29.3933 43.71 28.32 49.17 28.32C51.97 28.32 54.6067 28.5767 57.08 29.09C59.6 29.6033 61.9333 30.3267 64.08 31.26L61.7 36.72C59.9267 35.9267 57.92 35.25 55.68 34.69C53.4867 34.13 51.2 33.85 48.82 33.85C44.8533 33.85 41.4467 34.6667 38.6 36.3C35.7533 37.9333 33.5833 40.2667 32.09 43.3C30.5967 46.2867 29.85 49.8567 29.85 54.01C29.85 57.9767 30.48 61.5 31.74 64.58C33.0467 67.6133 35.0767 69.9933 37.83 71.72C40.5833 73.4 44.2 74.24 48.68 74.24C50.1733 74.24 51.48 74.1933 52.6 74.1C53.7667 73.96 54.8167 73.7967 55.75 73.61C56.73 73.4233 57.64 73.2367 58.48 73.05V58.21H47.49V52.61ZM92.5377 79H86.2377V34.55H70.6277V29.02H108.078V34.55H92.5377V79Z" fill="#202023"/>
  <line x1="19" y1="99.5" x2="109" y2="99.5" stroke="#202023" stroke-width="3"/>
</svg>
